<svg xmlns="http://www.w3.org/2000/svg" viewBox="0 0 324.06 301.55"><defs><style>.cls-1{fill:#fdfdfd;}.cls-2{fill:#58585a;}.cls-3{fill:#2dc0c3;}</style></defs><title>Layer 1</title><g id="Layer_2" data-name="Layer 2"><g id="Layer_1-2" data-name="Layer 1"><path class="cls-1" d="M324.06,301.5q-160.81,0-321.63.05c-2,0-2.43-.38-2.43-2.42Q.09,149.57.06,0C1.23,0,2.41.08,3.59.08Q162.2.1,320.79,0c2.43,0,3.14.45,3.14,3.05q-.12,147.6-.06,295.2C323.87,299.36,324,300.43,324.06,301.5ZM122,129.42c-.53-.6-.28-1.29-.28-1.92q0-39.37,0-78.74c0-5.92,2.52-9,7.94-10.56,1.9-.54,4.65.89,5.57-1.36.74-1.78.17-4.1.17-6.19a2.8,2.8,0,0,1,0-.5c.36-2.13-.39-2.81-2.66-2.79-15.83.11-31.67,0-47.5.08-2.54,0-5.94-1.12-7.4.52-1.26,1.43-.24,4.77-.47,7.24-.19,2.15.45,2.77,2.7,2.82,7.75.16,11.2,3.81,11.3,11.48v2.25q-.09,66.12-.22,132.22a16.93,16.93,0,0,0,2.34,8.76c6.08,10.6,15.08,18.06,25.63,23.84,2.56,1.4,2.58,1.39,2.58-1.54q0-23.62,0-47.24a4.39,4.39,0,0,1,1.37-3.53c4.73-4.57,9.34-9.27,14-13.88,2.77-2.71,2.81-2.67,5.26.24q41.68,49.66,83.33,99.32c1.13,1.35,3.35,2.75,2.49,4.48-.76,1.53-3.2.45-4.89.62-2.7.29-6.42-1.27-7.85.53s-.23,5.26-.39,8c-.09,1.63.55,2,2,1.89,1-.09,2,0,3,0,17.58,0,35.16,0,52.74.06,2.28,0,2.91-.65,2.71-2.81-.17-1.89,0-3.82,0-5.74,0-.68.06-1.36-1-1.28-5.11.39-8.31-2.67-11.27-6.24q-50.3-60.51-100.65-121c-1.18-1.41-1.33-2.23.07-3.63,10.6-10.59,21.13-21.27,31.66-31.93q7.2-7.29,14.34-14.64c.63-.64,1.88-1.34-.07-2-8.1-2.67-16.3-4.74-24.92-4.72a7.91,7.91,0,0,0-5.92,2.55q-26.86,27-53.87,53.89C123.34,128.53,123,129.35,122,129.42ZM86.7,73.63c-1,.83-1.93,1.58-2.81,2.42-17.16,16.36-27.44,36.59-33.33,59.29-1.26,4.87-2.87,9.59-6.17,13.51-.88,1.05-.8,1.7,0,2.74a28.85,28.85,0,0,1,5.91,13.31,89.59,89.59,0,0,0,7.11,22.82c11.48,24.85,30.36,42.21,54.81,53.81,20.63,9.78,42.5,13.7,65.25,13.13A124.84,124.84,0,0,0,214.72,248c1.54-.53,2-.91.74-2.41q-4.14-4.85-7.9-10c-1.19-1.65-2.36-1.81-4.22-1.36-15.19,3.64-30.54,5-46.09,2.8-26.31-3.67-48.24-15.41-64.85-36.22-12-15.07-19.45-32-17.35-51.9,1.35-12.73,4.39-24.91,11.1-36a6.36,6.36,0,0,0,1-3.52c0-11.16,0-22.33,0-33.49A3.2,3.2,0,0,0,86.7,73.63Zm39.84-8.58V75c0,3.28,0,3.2,2.87,2,27.16-11.48,54.85-13.77,83.1-4.47,15.5,5.11,29,13.65,41,24.64,1,.95,1.81,2,3.4.41,6.49-6.7,13.1-13.29,19.7-19.88.87-.88,1.05-1.46.07-2.43q-13.86-13.87-27.63-27.84c-.91-.92-1.51-1-2.43,0-2.21,2.26-4.47,4.48-6.81,6.62-1.21,1.1-.93,1.83.14,2.79,1.61,1.44,3.12,3,4.64,4.54.49.49.83,1.18.34,1.79s-1.22.15-1.74-.19a61.32,61.32,0,0,0-8.12-4.42A144.26,144.26,0,0,0,191,46.43a165.19,165.19,0,0,0-62.12,4.82c-1.81.48-2.42,1.23-2.36,3C126.63,57.88,126.54,61.46,126.54,65.05ZM207.2,44.9c8.92,1.41,17.74,3.09,26,7,1,.5,1.51-.29,2.09-.86,3-2.9,5.71-6.14,9-8.64,4.31-3.29,5.93-7.32,5.14-12.52a3.14,3.14,0,0,1,0-.75c.15-1.26-.33-1.75-1.67-1.74q-27,0-54,0c-1.48,0-1.85.53-1.79,1.89.09,2.25.1,4.5,0,6.75-.06,1.47.54,1.85,1.9,1.82,3-.08,6,0,9,0C207.87,37.84,209.42,40.28,207.2,44.9ZM91.46,235.81a5.72,5.72,0,0,0-.24.9c0,3.49,0,7,0,10.48s-1.47,5.72-4.83,7a15.44,15.44,0,0,1-7.12.84c-1.41-.12-1.94.24-1.87,1.71a44.81,44.81,0,0,1,0,6.24c-.16,2,.55,2.48,2.5,2.47,13.31-.09,26.63-.05,39.94-.05,4.58,0,9.16-.05,13.73,0,1.53,0,2.09-.41,2-2a35.25,35.25,0,0,1,0-5.24c.12-1.68-.36-2.41-2.15-2.86A123.81,123.81,0,0,1,102.44,243C98.7,240.9,95.18,238.42,91.46,235.81Zm184-29.23c0-3.16,0-6.32,0-9.48-.05-4.23.6-3.53-3.73-3.67-2.21-.07-3.93,0-5.36,2.39C262,203,256,209,249.5,214.36c-1.71,1.41-4.91,2.38-4.93,4.08,0,1.88,2.35,3.8,3.73,5.66,1.17,1.61,2.14,4,3.7,4.53,1.82.59,3.46-1.8,5.24-2.78,5.39-3,10.64-6.28,17.09-6.32,1.35,0,1.14-.93,1.14-1.72C275.48,214.07,275.48,210.32,275.48,206.58Z"/><path class="cls-2" d="M122,129.42c1-.07,1.35-.89,1.91-1.44q27-26.92,53.87-53.89a7.91,7.91,0,0,1,5.92-2.55c8.62,0,16.82,2,24.92,4.72,1.95.64.7,1.34.07,2q-7.16,7.33-14.34,14.64c-10.53,10.66-21.06,21.34-31.66,31.93-1.4,1.4-1.25,2.22-.07,3.63q50.37,60.47,100.65,121c3,3.57,6.16,6.63,11.27,6.24,1.06-.08,1,.6,1,1.28,0,1.92-.19,3.85,0,5.74.2,2.16-.43,2.83-2.71,2.81-17.58-.1-35.16-.06-52.74-.06-1,0-2-.07-3,0-1.47.15-2.11-.26-2-1.89.16-2.74-.95-6.3.39-8s5.15-.24,7.85-.53c1.69-.17,4.13.91,4.89-.62.86-1.73-1.36-3.13-2.49-4.48Q184,200.26,142.35,150.62c-2.45-2.91-2.49-3-5.26-.24-4.7,4.61-9.31,9.31-14,13.88a4.39,4.39,0,0,0-1.37,3.53q0,23.61,0,47.24c0,2.93,0,2.94-2.58,1.54-10.55-5.78-19.55-13.24-25.63-23.84A16.93,16.93,0,0,1,91.15,184q.19-66.1.22-132.22V49.5c-.1-7.67-3.55-11.32-11.3-11.48-2.25-.05-2.89-.67-2.7-2.82.23-2.47-.79-5.81.47-7.24,1.46-1.64,4.86-.51,7.4-.52,15.83,0,31.67,0,47.5-.08,2.27,0,3,.66,2.66,2.79a2.8,2.8,0,0,0,0,.5c0,2.09.57,4.41-.17,6.19-.92,2.25-3.67.82-5.57,1.36-5.42,1.54-7.94,4.64-7.94,10.56q0,39.38,0,78.74C121.71,128.13,121.46,128.82,122,129.42Z"/><path class="cls-3" d="M86.7,73.63A3.2,3.2,0,0,1,87.08,76c0,11.16,0,22.33,0,33.49a6.36,6.36,0,0,1-1,3.52c-6.71,11.06-9.75,23.24-11.1,36-2.1,19.95,5.32,36.83,17.35,51.9,16.61,20.81,38.54,32.55,64.85,36.22,15.55,2.17,30.9.84,46.09-2.8,1.86-.45,3-.29,4.22,1.36q3.75,5.15,7.9,10c1.27,1.5.8,1.88-.74,2.41a124.84,124.84,0,0,1-37.22,6.64c-22.75.57-44.62-3.35-65.25-13.13-24.45-11.6-43.33-29-54.81-53.81a89.59,89.59,0,0,1-7.11-22.82,28.85,28.85,0,0,0-5.91-13.31c-.83-1-.91-1.69,0-2.74,3.3-3.92,4.91-8.64,6.17-13.51,5.89-22.7,16.17-42.93,33.33-59.29C84.77,75.21,85.74,74.46,86.7,73.63Z"/><path class="cls-3" d="M126.54,65.05c0-3.59.09-7.17,0-10.75-.06-1.82.55-2.57,2.36-3A165.19,165.19,0,0,1,191,46.43,144.26,144.26,0,0,1,235.1,58.52a61.32,61.32,0,0,1,8.12,4.42c.52.34,1.17.93,1.74.19s.15-1.3-.34-1.79c-1.52-1.54-3-3.1-4.64-4.54-1.07-1-1.35-1.69-.14-2.79,2.34-2.14,4.6-4.36,6.81-6.62.92-.93,1.52-.87,2.43,0q13.77,14,27.63,27.84c1,1,.8,1.55-.07,2.43-6.6,6.59-13.21,13.18-19.7,19.88-1.59,1.63-2.36.54-3.4-.41-12-11-25.53-19.53-41-24.64-28.25-9.3-55.94-7-83.1,4.47-2.9,1.23-2.87,1.31-2.87-2Z"/><path class="cls-2" d="M207.2,44.9c2.22-4.62.67-7.06-4.38-7.07-3,0-6-.06-9,0-1.36,0-2-.35-1.9-1.82.11-2.25.1-4.5,0-6.75-.06-1.36.31-1.89,1.79-1.89q27,.08,54,0c1.34,0,1.82.48,1.67,1.74a3.14,3.14,0,0,0,0,.75c.79,5.2-.83,9.23-5.14,12.52-3.28,2.5-6,5.74-9,8.64-.58.57-1.05,1.36-2.09.86C224.94,48,216.12,46.31,207.2,44.9Z"/><path class="cls-2" d="M91.46,235.81c3.72,2.61,7.24,5.09,11,7.21a123.81,123.81,0,0,0,30.93,12.39c1.79.45,2.27,1.18,2.15,2.86a35.25,35.25,0,0,0,0,5.24c.12,1.56-.44,2-2,2-4.57-.09-9.15,0-13.73,0-13.31,0-26.63,0-39.94.05-2,0-2.66-.48-2.5-2.47a44.81,44.81,0,0,0,0-6.24c-.07-1.47.46-1.83,1.87-1.71a15.44,15.44,0,0,0,7.12-.84c3.36-1.32,4.82-3.41,4.83-7s0-7,0-10.48A5.72,5.72,0,0,1,91.46,235.81Z"/><path class="cls-3" d="M275.48,206.58c0,3.74,0,7.49,0,11.23,0,.79.21,1.71-1.14,1.72-6.45,0-11.7,3.35-17.09,6.32-1.78,1-3.42,3.37-5.24,2.78-1.56-.51-2.53-2.92-3.7-4.53-1.38-1.86-3.75-3.78-3.73-5.66,0-1.7,3.22-2.67,4.93-4.08C256,209,262,203,266.38,195.82c1.43-2.34,3.15-2.46,5.36-2.39,4.33.14,3.68-.56,3.73,3.67C275.5,200.26,275.48,203.42,275.48,206.58Z"/></g></g></svg>