<?xml version="1.0" encoding="UTF-8"?>
<svg width="373px" height="162px" viewBox="0 0 373 162" version="1.1" xmlns="http://www.w3.org/2000/svg" xmlns:xlink="http://www.w3.org/1999/xlink">
    <!-- Generator: Sketch 51.1 (57501) - http://www.bohemiancoding.com/sketch -->
    <title>Untitled 4</title>
    <desc>Created with Sketch.</desc>
    <defs></defs>
    <g id="Page-1" stroke="none" stroke-width="1" fill="none" fill-rule="evenodd">
        <g id="Group-6-Copy">
            <g id="Group-4" transform="translate(226.460000, 0.000000)">
                <path d="M0.767168816,130.548 L10.698418,130.548 C24.1188661,145.166106 43.3930308,154.33 64.8088889,154.33 C105.355603,154.33 138.225208,121.481132 138.225208,80.96 C138.225208,40.4388679 105.355603,7.59 64.8088889,7.59 C43.1469823,7.59 23.676264,16.9656728 10.2381758,31.878 L0.377479752,31.878 C15.1789574,12.5017531 38.533031,0 64.8088889,0 C109.55009,0 145.82,36.2470267 145.82,80.96 C145.82,125.672973 109.55009,161.92 64.8088889,161.92 C38.76247,161.92 15.5870325,149.635623 0.767168816,130.548 Z" id="Combined-Shape"></path>
                <path d="M21.5593476,130.548 L34.3255891,130.548 C43.1921235,136.003271 53.6327953,139.15 64.8088889,139.15 C96.9666273,139.15 123.035625,113.09745 123.035625,80.96 C123.035625,48.8225504 96.9666273,22.77 64.8088889,22.77 C53.2916422,22.77 42.5554005,26.1117703 33.5180537,31.878 L20.9856694,31.878 C32.6237994,21.4926669 47.9786776,15.18 64.8088889,15.18 C101.161115,15.18 130.630417,44.6307092 130.630417,80.96 C130.630417,117.289291 101.161115,146.74 64.8088889,146.74 C48.2537833,146.74 33.1261737,140.632019 21.5593476,130.548 Z" id="Combined-Shape" fill="#F16421"></path>
                <path d="M64.8088889,131.56 C36.8456381,131.56 14.1769444,108.905608 14.1769444,80.96 C14.1769444,53.0143917 36.8456381,30.36 64.8088889,30.36 C92.7721397,30.36 115.440833,53.0143917 115.440833,80.96 C115.440833,108.905608 92.7721397,131.56 64.8088889,131.56 Z M64.8088889,123.97 C88.577652,123.97 107.846042,104.713767 107.846042,80.96 C107.846042,57.2062329 88.577652,37.95 64.8088889,37.95 C41.0401257,37.95 21.7717361,57.2062329 21.7717361,80.96 C21.7717361,104.713767 41.0401257,123.97 64.8088889,123.97 Z" id="Combined-Shape-Copy-14" fill="#126D91"></path>
            </g>
            <path d="M290.4,45.0828883 C290.553104,45.0809647 290.706439,45.08 290.86,45.08 C310.675977,45.08 326.74,61.1440232 326.74,80.96 C326.74,100.775977 310.675977,116.84 290.86,116.84 C290.706439,116.84 290.553104,116.839035 290.4,116.837112 L218.64,116.84 L218.64,45.08 L290.4,45.08 Z" id="Combined-Shape-Copy-10" fill="#44C0C1"></path>
            <text id="KC" font-family="Futura-Medium, Futura" font-size="60" font-weight="400" fill="#FFFFFF">
                <tspan x="223.219922" y="103.4">KC</tspan>
            </text>
            <text id="RESIDE" font-family="Futura-Medium, Futura" font-size="60" font-weight="400" fill="#126D91">
                <tspan x="0.682578125" y="105.4">RESIDE</tspan>
            </text>
        </g>
    </g>
</svg>
