<?xml version="1.0" encoding="utf-8"?>
<!-- Generator: Adobe Illustrator 22.0.1, SVG Export Plug-In . SVG Version: 6.00 Build 0)  -->
<svg version="1.1" id="Layer_1" xmlns="http://www.w3.org/2000/svg" xmlns:xlink="http://www.w3.org/1999/xlink" x="0px" y="0px"
	 viewBox="0 0 373 162" style="enable-background:new 0 0 373 162;" xml:space="preserve">
<style type="text/css">
	.st0{fill:none;}
	.st1{fill:#F16421;}
	.st2{fill:#126D91;}
	.st3{fill:#44C0C1;}
	.st4{enable-background:new    ;}
	.st5{fill:#FFFFFF;}
</style>
<title>Untitled 4</title>
<desc>Created with Sketch.</desc>
<g id="Group-6-Copy">
	<g id="Group-4" transform="translate(226.460000, 0.000000)">
		<path id="Combined-Shape" class="st0" d="M0.8,130.5h9.9c13.4,14.6,32.7,23.8,54.1,23.8c40.5,0,73.4-32.8,73.4-73.4
			S105.4,7.6,64.8,7.6c-21.7,0-41.1,9.4-54.6,24.3H0.4C15.2,12.5,38.5,0,64.8,0c44.7,0,81,36.2,81,81s-36.3,81-81,81
			C38.8,161.9,15.6,149.6,0.8,130.5z"/>
		<path id="Combined-Shape_1_" class="st1" d="M21.6,130.5h12.8c8.9,5.5,19.3,8.6,30.5,8.6C97,139.1,123,113.1,123,81
			S97,22.8,64.8,22.8c-11.5,0-22.3,3.3-31.3,9.1H21c11.6-10.4,27-16.7,43.8-16.7c36.4,0,65.8,29.5,65.8,65.8s-29.5,65.8-65.8,65.8
			C48.3,146.7,33.1,140.6,21.6,130.5z"/>
		<path id="Combined-Shape-Copy-14" class="st2" d="M64.8,131.6c-28,0-50.6-22.7-50.6-50.6s22.7-50.6,50.6-50.6S115.4,53,115.4,81
			S92.8,131.6,64.8,131.6z M64.8,124c23.8,0,43-19.3,43-43s-19.3-43-43-43s-43,19.3-43,43S41,124,64.8,124z"/>
	</g>
	<path id="Combined-Shape-Copy-10" class="st3" d="M290.4,45.1c0.2,0,0.3,0,0.5,0c19.8,0,35.9,16.1,35.9,35.9s-16.1,35.9-35.9,35.9
		c-0.2,0-0.3,0-0.5,0l-71.8,0V45.1L290.4,45.1L290.4,45.1z"/>
	<g class="st4">
		<path class="st5" d="M235.5,76.2l17.6-18h9.1l-20.4,20.5l20.6,24.8h-9.1l-16.3-20.1l-1.4,1.4v18.7h-6.8V58.2h6.8V76.2z"/>
		<path class="st5" d="M299.2,60.6v8.1c-3.9-3.3-8-5-12.2-5c-4.6,0-8.6,1.7-11.7,5c-3.2,3.3-4.8,7.4-4.8,12.2c0,4.7,1.6,8.8,4.8,12
			s7.1,4.9,11.8,4.9c2.4,0,4.4-0.4,6.1-1.2c0.9-0.4,1.9-0.9,2.9-1.6s2.1-1.5,3.2-2.4v8.2c-3.9,2.2-8,3.3-12.3,3.3
			c-6.5,0-12-2.3-16.6-6.8c-4.6-4.6-6.8-10-6.8-16.5c0-5.8,1.9-10.9,5.7-15.4c4.7-5.5,10.8-8.3,18.2-8.3
			C291.5,57.3,295.4,58.4,299.2,60.6z"/>
	</g>
	<g class="st4">
		<path class="st2" d="M21.4,86.1l14,19.3h-8.3L14.2,86.9h-1.2v18.5H6.1V60.2h8c6,0,10.3,1.1,12.9,3.4c2.9,2.5,4.4,5.8,4.4,9.9
			c0,3.2-0.9,6-2.8,8.3C26.9,84,24.4,85.5,21.4,86.1z M12.9,80.9h2.2c6.5,0,9.7-2.5,9.7-7.4c0-4.6-3.1-6.9-9.4-6.9h-2.4V80.9z"/>
		<path class="st2" d="M67.2,66.6H49.1v10.9h17.6v6.4H49.1V99h18.1v6.4h-25V60.2h25V66.6z"/>
		<path class="st2" d="M101.7,66.9l-5.5,3.3c-1-1.8-2-3-3-3.5c-1-0.6-2.2-0.9-3.8-0.9c-1.9,0-3.5,0.5-4.7,1.6
			c-1.2,1.1-1.9,2.4-1.9,4c0,2.2,1.6,4,4.9,5.3l4.5,1.8c3.7,1.5,6.4,3.3,8.1,5.4c1.7,2.1,2.5,4.8,2.5,7.9c0,4.2-1.4,7.6-4.2,10.3
			c-2.8,2.7-6.3,4.1-10.4,4.1c-3.9,0-7.2-1.2-9.7-3.5c-2.5-2.3-4.1-5.6-4.7-9.8l6.9-1.5c0.3,2.7,0.9,4.5,1.6,5.5
			c1.4,2,3.5,2.9,6.2,2.9c2.1,0,3.9-0.7,5.3-2.1s2.1-3.2,2.1-5.4c0-0.9-0.1-1.7-0.4-2.4c-0.2-0.7-0.6-1.4-1.1-2
			c-0.5-0.6-1.2-1.2-2-1.7s-1.8-1-2.9-1.5l-4.4-1.8c-6.2-2.6-9.3-6.4-9.3-11.5c0-3.4,1.3-6.2,3.9-8.5c2.6-2.3,5.8-3.5,9.7-3.5
			C94.7,59.3,98.8,61.8,101.7,66.9z"/>
		<path class="st2" d="M118,60.2v45.2h-6.8V60.2H118z"/>
		<path class="st2" d="M128.8,105.4V60.2h9.5c4.6,0,8.1,0.4,10.8,1.3c2.8,0.9,5.4,2.4,7.7,4.5c4.7,4.3,7,9.9,7,16.8
			c0,7-2.4,12.6-7.3,16.9c-2.4,2.1-5,3.6-7.7,4.5c-2.5,0.8-6,1.3-10.6,1.3H128.8z M135.7,99h3.1c3.1,0,5.6-0.3,7.6-1
			c2-0.7,3.9-1.8,5.5-3.3c3.4-3.1,5-7.1,5-12c0-5-1.7-9-5-12.1c-3-2.8-7.4-4.1-13.2-4.1h-3.1V99z"/>
		<path class="st2" d="M197.4,66.6h-18.1v10.9h17.6v6.4h-17.6V99h18.1v6.4h-25V60.2h25V66.6z"/>
	</g>
</g>
</svg>
